# Blender v3.0.1 OBJ File: 'house1.blend'
# www.blender.org
mtllib house2.mtl
o House2_Cube.004
v -70.071793 -3.779762 -99.465004
v -70.071793 69.779762 -99.465004
v -70.071793 -3.779762 -288.535004
v -70.071793 69.779762 -288.535004
v 67.066505 -3.779762 -99.465004
v 67.066505 69.779762 -99.465004
v 67.066505 -3.779762 -288.535004
v 67.066505 69.779762 -288.535004
v -38.604691 116.779762 -150.484955
v -38.604691 116.779762 -237.515030
v 38.604691 116.779762 -237.515030
v 38.604691 116.779762 -150.484955
v -73.071793 69.779762 -96.465012
v -73.071793 69.779762 -291.535004
v 73.071793 69.779762 -291.535004
v 73.071793 69.779762 -96.465012
v -41.604687 116.779762 -147.484955
v -41.604687 116.779762 -240.515030
v 41.604687 116.779762 -240.515030
v 41.604687 116.779762 -147.484955
v -38.604691 166.779770 -150.484955
v -38.604691 166.779770 -237.515030
v 38.604691 166.779770 -237.515030
v 38.604691 166.779770 -150.484955
v -38.604691 197.779770 -196.515030
v 38.604691 197.779770 -196.515030
v 38.604691 168.438629 -149.367752
v -38.604691 168.438629 -149.367752
v -38.604691 199.438644 -195.397827
v 38.604691 199.438644 -195.397827
v -38.604691 168.375076 -238.721252
v 38.604691 168.375076 -238.721252
v -38.604691 199.375076 -197.721252
v 38.604691 199.375076 -197.721252
v 38.604691 166.779770 -237.515030
v 38.604691 166.779770 -150.484955
v 38.604691 197.779770 -196.515030
v 38.604691 199.438644 -195.397827
v 39.604691 166.779770 -150.484955
v 39.604691 197.779770 -196.515030
v 39.604691 166.779770 -237.515030
v 39.604691 168.438629 -149.367752
v 39.604691 199.438644 -195.397827
v 39.604691 199.375076 -197.721252
v 39.604691 168.375076 -238.721252
v -39.604691 197.779770 -196.515030
v -39.604691 166.779770 -150.484955
v -39.604691 166.779770 -237.515030
v -39.604691 199.438644 -195.397827
v -39.604691 168.438629 -149.367752
v -39.604691 168.375076 -238.721252
v -39.604691 199.375076 -197.721252
v 67.066505 -3.779762 -177.293854
v 67.066505 -3.779762 -213.028885
vt 0.205039 0.476220
vt 0.205039 0.476220
vt 0.205039 0.476220
vt 0.205039 0.476220
vt 0.205039 0.476220
vt 0.205039 0.476220
vt 0.205039 0.476220
vt 0.205039 0.476220
vt 0.205039 0.476220
vt 0.205039 0.476220
vt 0.511496 0.462992
vt 0.511496 0.462992
vt 0.511496 0.462992
vt 0.511496 0.462992
vt 0.205039 0.476220
vt 0.205039 0.476220
vt 0.205039 0.476220
vt 0.205039 0.476220
vt 0.511496 0.462992
vt 0.511496 0.462992
vt 0.511496 0.462992
vt 0.511496 0.462992
vt 0.511496 0.462992
vt 0.511496 0.462992
vt 0.511496 0.462992
vt 0.511496 0.462992
vt 0.511496 0.462992
vt 0.511496 0.462992
vt 0.511496 0.462992
vt 0.511496 0.462992
vt 0.455275 0.492756
vt 0.455275 0.492756
vt 0.455275 0.492756
vt 0.455275 0.492756
vt 0.205039 0.476220
vt 0.205039 0.476220
vt 0.205039 0.476220
vt 0.205039 0.476220
vt 0.511496 0.462992
vt 0.511496 0.462992
vt 0.511496 0.462992
vt 0.511496 0.462992
vt 0.205039 0.476220
vt 0.205039 0.476220
vt 0.511496 0.462992
vt 0.511496 0.462992
vt 0.511496 0.462992
vt 0.511496 0.462992
vt 0.511496 0.462992
vt 0.511496 0.462992
vt 0.511496 0.462992
vt 0.511496 0.462992
vt 0.511496 0.462992
vt 0.511496 0.462992
vt 0.511496 0.462992
vt 0.511496 0.462992
vt 0.511496 0.462992
vt 0.511496 0.462992
vt 0.511496 0.462992
vt 0.511496 0.462992
vt 0.511496 0.462992
vt 0.511496 0.462992
vt 0.511496 0.462992
vt 0.511496 0.462992
vt 0.205039 0.476220
vt 0.205039 0.476220
vt 0.205039 0.476220
vt 0.205039 0.476220
vt 0.205039 0.476220
vt 0.511496 0.462992
vt 0.511496 0.462992
vt 0.511496 0.462992
vt 0.511496 0.462992
vt 0.205039 0.476220
vt 0.205039 0.476220
vt 0.205039 0.476220
vt 0.205039 0.476220
vt 0.205039 0.476220
vt 0.205039 0.476220
vt 0.191811 0.477323
vt 0.191811 0.477323
vt 0.191811 0.477323
vt 0.191811 0.477323
vt 0.191811 0.477323
vn -1.0000 0.0000 0.0000
vn 0.0000 0.0000 -1.0000
vn 0.0000 0.0000 1.0000
vn 0.0000 -1.0000 0.0000
vn 0.0000 1.0000 0.0000
vn 0.8310 0.5563 0.0000
vn -0.8310 0.5563 0.0000
vn 0.0000 0.7355 0.6775
vn 0.0000 0.7355 -0.6775
vn 1.0000 0.0000 0.0000
vn 0.0000 -0.5586 0.8294
vn 0.0000 0.8294 0.5586
vn 0.0000 -0.8294 -0.5586
vn 0.0000 0.7977 -0.6031
vn 0.0000 -0.6031 -0.7977
vn 0.0000 0.9996 -0.0273
vn 0.0000 0.9996 -0.0274
vn 0.0000 -0.7977 0.6031
usemtl HouseMaterial
s off
f 1/1/1 2/2/1 4/3/1 3/4/1
f 3/4/2 4/3/2 8/5/2 7/6/2
f 5/7/3 6/8/3 2/2/3 1/1/3
f 3/4/4 7/6/4 54/9/4 53/10/4 5/7/4 1/1/4
f 4/11/4 2/12/4 13/13/4 14/14/4
f 9/15/3 12/16/3 24/17/3 21/18/3
f 10/19/5 11/20/5 19/21/5 18/22/5
f 12/23/5 9/24/5 17/25/5 20/26/5
f 6/27/4 8/28/4 15/29/4 16/30/4
f 16/30/6 15/29/6 19/21/6 20/26/6
f 14/14/7 13/13/7 17/25/7 18/22/7
f 13/13/8 16/30/8 20/26/8 17/25/8
f 15/29/9 14/14/9 18/22/9 19/21/9
f 2/12/4 6/27/4 16/30/4 13/13/4
f 8/28/4 4/11/4 14/14/4 15/29/4
f 11/20/5 12/23/5 20/26/5 19/21/5
f 9/31/5 10/32/5 18/33/5 17/34/5
f 11/35/2 10/36/2 22/37/2 23/38/2
f 12/16/10 11/35/10 23/38/10 24/17/10
f 10/36/1 9/15/1 21/18/1 22/37/1
f 21/39/11 28/40/11 50/41/11 47/42/11
f 24/17/10 23/38/10 26/43/10
f 22/37/1 21/18/1 25/44/1
f 30/45/12 27/46/12 42/47/12 43/48/12
f 28/40/12 27/46/12 30/45/12 29/49/12
f 21/39/11 24/50/11 27/46/11 28/40/11
f 25/51/13 21/39/13 47/42/13 46/52/13
f 32/53/14 31/54/14 33/55/14 34/56/14
f 23/57/15 22/58/15 31/54/15 32/53/15
f 34/56/16 30/45/16 43/48/16 44/59/16
f 30/45/17 34/56/17 33/55/17 29/49/17
f 33/55/14 31/54/14 51/60/14 52/61/14
f 26/62/18 23/57/18 41/63/18 40/64/18
f 26/43/3 30/65/3 38/66/3 37/67/3
f 23/38/3 26/43/3 37/67/3 35/68/3
f 26/43/3 24/17/3 36/69/3 37/67/3
f 39/70/10 40/64/10 43/48/10 42/47/10
f 40/64/10 41/63/10 45/71/10 44/59/10
f 40/64/10 44/59/10 43/48/10
f 32/53/14 34/56/14 44/59/14 45/71/14
f 24/50/13 26/62/13 40/64/13 39/70/13
f 27/46/11 24/50/11 39/70/11 42/47/11
f 23/57/15 32/53/15 45/71/15 41/63/15
f 48/72/1 46/52/1 52/61/1 51/60/1
f 46/52/1 47/42/1 50/41/1 49/73/1
f 46/52/1 49/73/1 52/61/1
f 31/54/15 22/58/15 48/72/15 51/60/15
f 22/58/18 25/51/18 46/52/18 48/72/18
f 29/74/16 33/75/16 52/76/16 49/77/16
f 28/78/12 29/74/12 49/77/12 50/79/12
f 7/80/10 8/81/10 6/82/10 5/83/10 53/84/10
