# Blender v3.0.0 OBJ File: 'road_grid.blend'
# www.blender.org
mtllib right.mtl
o Right_Cube.008
v -0.500000 0.100000 0.500000
v -0.500000 -0.100000 0.500000
v -0.500000 0.100000 -0.500000
v -0.500000 -0.100000 -0.500000
v 2.000000 -0.100000 0.500000
v 2.000000 -0.100000 -0.500000
v 2.000000 0.100000 0.500000
v 2.000000 0.100000 -0.500000
vt 0.375000 0.750000
vt 0.625000 0.750000
vt 0.625000 1.000000
vt 0.375000 1.000000
vt 0.625000 0.500000
vt 0.875000 0.500000
vt 0.875000 0.750000
vt 0.375000 0.500000
vt 0.625000 0.000000
vt 0.625000 0.250000
vt 0.375000 0.250000
vt 0.375000 0.000000
vt 0.125000 0.750000
vt 0.125000 0.500000
vn -1.0000 0.0000 0.0000
vn 0.0000 1.0000 0.0000
vn 0.0000 0.0000 1.0000
vn -0.0000 0.0000 -1.0000
vn 1.0000 0.0000 0.0000
vn 0.0000 -1.0000 0.0000
usemtl Material
s off
f 2/1/1 1/2/1 3/3/1 4/4/1
f 1/2/2 7/5/2 8/6/2 3/7/2
f 2/1/3 5/8/3 7/5/3 1/2/3
f 3/9/4 8/10/4 6/11/4 4/12/4
f 6/11/5 8/10/5 7/5/5 5/8/5
f 4/13/6 6/14/6 5/8/6 2/1/6
