# Blender v3.0.0 OBJ File: 'bear.blend'
# www.blender.org
mtllib bear.mtl
o Cube_Cube.001
v -1.698439 2.134357 1.000000
v -1.576071 6.232531 0.805460
v -1.698439 2.134357 -1.000000
v -1.576071 6.232531 -0.805460
v 0.000000 2.134357 1.000000
v 0.000000 6.301681 1.000000
v 0.000000 2.134357 -1.000000
v 0.000000 6.301681 -1.000000
v -2.018704 3.228629 1.000000
v -1.850084 4.322901 1.000000
v -1.728460 5.417173 1.000000
v -1.728460 5.417173 -1.000000
v -1.850084 4.322901 -1.000000
v -2.018704 3.228629 -1.000000
v 0.000000 5.417173 -1.000000
v 0.000000 4.322901 -0.927004
v 0.000000 3.228629 -1.075189
v 0.000000 5.417173 1.136392
v 0.000000 4.322901 1.269096
v 0.000000 3.158572 1.298517
v -1.576071 7.005821 0.805460
v -1.576071 7.005821 -0.805460
v 0.000000 6.936672 -1.000000
v 0.000000 6.936672 1.000000
v -2.702481 6.272563 0.431929
v -2.702481 6.272563 -0.431929
v -2.702481 6.965788 0.431929
v -2.702481 6.965788 -0.431929
v -3.681931 6.272563 0.431929
v -3.681931 6.272563 -0.431929
v -3.681931 6.965788 0.431929
v -3.681931 6.965788 -0.431929
v -4.055285 6.358723 0.324562
v -4.055285 6.358723 -0.391630
v -4.055285 6.792658 0.324562
v -4.055285 6.792658 -0.391630
v -4.899147 6.391780 0.270003
v -4.899147 6.391780 -0.337071
v -4.899147 6.759601 0.270003
v -4.899147 6.759601 -0.337071
v -0.871002 7.473526 0.585452
v -0.871002 7.473526 -0.585452
v 0.000000 7.465937 -0.661054
v 0.000000 7.465937 0.707881
v -1.156176 8.294996 0.821980
v -1.156176 8.294996 -0.792800
v 0.000000 8.287407 -0.894653
v 0.000000 8.287407 0.986919
v -1.150362 9.195890 0.821980
v -1.150362 9.195890 -0.792800
v 0.000000 9.188301 -0.894653
v 0.000000 9.188301 0.986919
v -0.878354 10.042430 0.614398
v -0.878354 10.042430 -0.578325
v 0.000000 10.183187 -0.680178
v 0.000000 10.183187 0.779336
v -0.761338 10.065866 0.278132
v -0.778607 10.065866 -0.169587
v -0.151924 10.159751 -0.258719
v -0.118102 10.159751 0.224901
v -0.723616 10.444201 0.146229
v -0.734398 10.444201 -0.111267
v -0.343112 10.511211 -0.162530
v -0.321994 10.511211 0.115615
v -1.527424 1.436393 -0.798197
v -1.527424 1.436393 0.798197
v -0.174578 1.436393 -0.798197
v -0.174578 1.436393 0.798197
v -1.360736 0.842243 -0.601501
v -1.360736 0.842243 0.601501
v -0.341266 0.842243 -0.601501
v -0.341266 0.842243 0.601501
v -1.249243 0.229123 -0.469937
v -1.249243 0.229123 0.469937
v -0.452758 0.229123 -0.469937
v -0.452758 0.229123 0.469937
v -1.249243 -0.116314 -0.469937
v -1.249243 -0.116314 0.469937
v -0.452758 -0.116314 -0.469937
v -0.452758 -0.116314 0.469937
v -1.388233 0.229123 1.512595
v -0.313768 0.229123 1.512595
v -1.388233 -0.116314 1.512595
v -0.313768 -0.116314 1.512595
v 0.000000 8.899502 0.986919
v 0.000000 8.431548 0.986919
v -0.522971 8.890321 0.921058
v -0.527109 8.442451 0.920731
v 0.000000 8.879828 1.418372
v 0.000000 8.468276 1.418372
v -0.402557 8.890614 1.401034
v -0.406695 8.474840 1.400707
v 1.698439 2.134357 1.000000
v 1.576071 6.232531 0.805460
v 1.698439 2.134357 -1.000000
v 1.576071 6.232531 -0.805460
v 2.018704 3.228629 1.000000
v 1.850084 4.322901 1.000000
v 1.728460 5.417173 1.000000
v 1.728460 5.417173 -1.000000
v 1.850084 4.322901 -1.000000
v 2.018704 3.228629 -1.000000
v 1.576071 7.005821 0.805460
v 1.576071 7.005821 -0.805460
v 2.702481 6.272563 0.431929
v 2.702481 6.272563 -0.431929
v 2.702481 6.965788 0.431929
v 2.702481 6.965788 -0.431929
v 3.681931 6.272563 0.431929
v 3.681931 6.272563 -0.431929
v 3.681931 6.965788 0.431929
v 3.681931 6.965788 -0.431929
v 4.055285 6.358723 0.324562
v 4.055285 6.358723 -0.391630
v 4.055285 6.792658 0.324562
v 4.055285 6.792658 -0.391630
v 4.899147 6.391780 0.270003
v 4.899147 6.391780 -0.337071
v 4.899147 6.759601 0.270003
v 4.899147 6.759601 -0.337071
v 0.871002 7.473526 0.585452
v 0.871002 7.473526 -0.585452
v 1.156176 8.294996 0.821980
v 1.156176 8.294996 -0.792800
v 1.150362 9.195890 0.821980
v 1.150362 9.195890 -0.792800
v 0.878354 10.042430 0.614398
v 0.878354 10.042430 -0.578325
v 0.761338 10.065866 0.278132
v 0.778607 10.065866 -0.169587
v 0.151924 10.159751 -0.258719
v 0.118102 10.159751 0.224901
v 0.723616 10.444201 0.146229
v 0.734398 10.444201 -0.111267
v 0.343112 10.511211 -0.162530
v 0.321994 10.511211 0.115615
v 1.527424 1.436393 -0.798197
v 1.527424 1.436393 0.798197
v 0.174578 1.436393 -0.798197
v 0.174578 1.436393 0.798197
v 1.360736 0.842243 -0.601501
v 1.360736 0.842243 0.601501
v 0.341266 0.842243 -0.601501
v 0.341266 0.842243 0.601501
v 1.249243 0.229123 -0.469937
v 1.249243 0.229123 0.469937
v 0.452758 0.229123 -0.469937
v 0.452758 0.229123 0.469937
v 1.249243 -0.116314 -0.469937
v 1.249243 -0.116314 0.469937
v 0.452758 -0.116314 -0.469937
v 0.452758 -0.116314 0.469937
v 1.388233 0.229123 1.512595
v 0.313768 0.229123 1.512595
v 1.388233 -0.116314 1.512595
v 0.313768 -0.116314 1.512595
v 0.522971 8.890321 0.921058
v 0.527109 8.442451 0.920731
v 0.402557 8.890614 1.401034
v 0.406695 8.474840 1.400707
vt 0.562500 0.000000
vt 0.625000 0.000000
vt 0.625000 0.250000
vt 0.562500 0.250000
vt 0.625000 0.500000
vt 0.562500 0.500000
vt 0.625000 0.750000
vt 0.562500 0.750000
vt 0.625000 1.000000
vt 0.562500 1.000000
vt 0.375000 0.000000
vt 0.375000 0.250000
vt 0.375000 0.250000
vt 0.375000 0.000000
vt 0.625000 0.000000
vt 0.625000 0.250000
vt 0.375000 0.750000
vt 0.437500 0.750000
vt 0.437500 1.000000
vt 0.375000 1.000000
vt 0.500000 0.750000
vt 0.500000 1.000000
vt 0.375000 0.500000
vt 0.437500 0.500000
vt 0.500000 0.500000
vt 0.437500 0.250000
vt 0.500000 0.250000
vt 0.437500 0.000000
vt 0.500000 0.000000
vt 0.625000 0.750000
vt 0.625000 0.500000
vt 0.625000 0.500000
vt 0.625000 0.750000
vt 0.625000 1.000000
vt 0.625000 0.250000
vt 0.625000 1.000000
vt 0.625000 1.000000
vt 0.625000 1.000000
vt 0.625000 1.000000
vt 0.875000 0.750000
vt 0.875000 0.500000
vt 0.875000 0.500000
vt 0.875000 0.750000
vt 0.625000 0.250000
vt 0.625000 0.250000
vt 0.625000 0.250000
vt 0.625000 0.250000
vt 0.625000 0.250000
vt 0.625000 0.000000
vt 0.875000 0.500000
vt 0.875000 0.750000
vt 0.875000 0.750000
vt 0.875000 0.500000
vt 0.875000 0.500000
vt 0.875000 0.750000
vt 0.625000 1.000000
vt 0.625000 1.000000
vt 0.625000 0.000000
vt 0.625000 0.250000
vt 0.625000 0.000000
vt 0.625000 0.000000
vt 0.625000 0.250000
vt 0.625000 1.000000
vt 0.625000 1.000000
vt 0.625000 1.000000
vt 0.625000 0.750000
vt 0.625000 1.000000
vt 0.875000 0.750000
vt 0.875000 0.500000
vt 0.625000 0.250000
vt 0.625000 0.500000
vt 0.625000 0.500000
vt 0.625000 0.750000
vt 0.625000 0.750000
vt 0.625000 0.750000
vt 0.625000 0.250000
vt 0.875000 0.750000
vt 0.875000 0.500000
vt 0.625000 1.000000
vt 0.625000 0.750000
vt 0.625000 1.000000
vt 0.875000 0.750000
vt 0.875000 0.500000
vt 0.625000 0.850322
vt 0.625000 0.849826
vt 0.625000 0.250000
vt 0.625000 0.500000
vt 0.625000 0.500000
vt 0.625000 0.750000
vt 0.625000 0.250000
vt 0.875000 0.750000
vt 0.875000 0.500000
vt 0.625000 0.500000
vt 0.625000 0.750000
vt 0.875000 0.750000
vt 0.875000 0.500000
vt 0.625000 1.000000
vt 0.625000 0.250000
vt 0.875000 0.500000
vt 0.875000 0.750000
vt 0.625000 1.000000
vt 0.625000 0.250000
vt 0.375000 0.500000
vt 0.375000 0.750000
vt 0.375000 0.750000
vt 0.375000 0.500000
vt 0.375000 1.000000
vt 0.375000 0.750000
vt 0.375000 0.500000
vt 0.375000 0.250000
vt 0.375000 0.000000
vt 0.375000 1.000000
vt 0.375000 1.000000
vt 0.375000 1.000000
vt 0.375000 0.750000
vt 0.375000 0.250000
vt 0.375000 0.000000
vt 0.125000 0.500000
vt 0.375000 0.500000
vt 0.375000 0.750000
vt 0.125000 0.750000
vt 0.375000 0.250000
vt 0.375000 0.000000
vt 0.375000 1.000000
vt 0.375000 0.750000
vt 0.375000 0.000000
vt 0.375000 0.000000
vt 0.125000 0.750000
vt 0.625000 0.750000
vt 0.625000 0.849826
vt 0.625000 0.850322
vt 0.625000 0.750000
vt 0.562500 0.000000
vt 0.562500 0.250000
vt 0.625000 0.250000
vt 0.625000 0.000000
vt 0.562500 1.000000
vt 0.625000 1.000000
vt 0.375000 0.000000
vt 0.375000 0.000000
vt 0.375000 0.250000
vt 0.375000 0.250000
vt 0.625000 0.250000
vt 0.625000 0.000000
vt 0.375000 1.000000
vt 0.437500 1.000000
vt 0.500000 1.000000
vt 0.437500 0.250000
vt 0.500000 0.250000
vt 0.437500 0.000000
vt 0.500000 0.000000
vt 0.625000 1.000000
vt 0.625000 0.250000
vt 0.625000 1.000000
vt 0.625000 1.000000
vt 0.625000 1.000000
vt 0.625000 1.000000
vt 0.875000 0.750000
vt 0.875000 0.750000
vt 0.875000 0.500000
vt 0.875000 0.500000
vt 0.625000 0.250000
vt 0.625000 0.250000
vt 0.625000 0.250000
vt 0.625000 0.250000
vt 0.625000 0.250000
vt 0.625000 0.000000
vt 0.875000 0.750000
vt 0.875000 0.500000
vt 0.875000 0.750000
vt 0.875000 0.750000
vt 0.875000 0.500000
vt 0.875000 0.500000
vt 0.625000 1.000000
vt 0.625000 1.000000
vt 0.625000 0.000000
vt 0.625000 0.250000
vt 0.625000 0.250000
vt 0.625000 0.000000
vt 0.625000 0.000000
vt 0.625000 1.000000
vt 0.625000 1.000000
vt 0.625000 1.000000
vt 0.625000 1.000000
vt 0.875000 0.500000
vt 0.875000 0.750000
vt 0.625000 0.250000
vt 0.625000 0.250000
vt 0.875000 0.500000
vt 0.875000 0.750000
vt 0.625000 1.000000
vt 0.625000 1.000000
vt 0.875000 0.500000
vt 0.875000 0.750000
vt 0.625000 0.849826
vt 0.625000 0.850322
vt 0.625000 0.250000
vt 0.625000 0.750000
vt 0.625000 0.500000
vt 0.625000 0.250000
vt 0.875000 0.500000
vt 0.875000 0.750000
vt 0.625000 0.750000
vt 0.625000 0.500000
vt 0.875000 0.500000
vt 0.875000 0.750000
vt 0.625000 1.000000
vt 0.625000 0.250000
vt 0.875000 0.750000
vt 0.875000 0.500000
vt 0.625000 1.000000
vt 0.625000 0.250000
vt 0.375000 0.500000
vt 0.375000 0.500000
vt 0.375000 0.750000
vt 0.375000 0.750000
vt 0.375000 1.000000
vt 0.375000 0.500000
vt 0.375000 0.750000
vt 0.375000 0.000000
vt 0.375000 0.250000
vt 0.375000 1.000000
vt 0.375000 0.750000
vt 0.375000 1.000000
vt 0.375000 1.000000
vt 0.375000 0.000000
vt 0.375000 0.250000
vt 0.125000 0.500000
vt 0.125000 0.750000
vt 0.375000 0.750000
vt 0.375000 0.500000
vt 0.375000 0.250000
vt 0.375000 0.000000
vt 0.375000 0.750000
vt 0.375000 1.000000
vt 0.375000 0.000000
vt 0.375000 0.000000
vt 0.125000 0.750000
vt 0.625000 0.850322
vt 0.625000 0.849826
vn -0.9830 0.1837 0.0000
vn -0.0608 0.1189 -0.9910
vn 1.0000 0.0000 0.0000
vn -0.1018 0.1989 0.9747
vn -0.9713 -0.2380 0.0000
vn -0.0355 -0.9994 0.0000
vn -0.0820 -0.1512 0.9851
vn -0.1447 0.0237 0.9892
vn -0.1123 0.0664 0.9915
vn -0.0202 -0.0373 -0.9991
vn -0.0006 0.0676 -0.9977
vn 0.0204 -0.0345 -0.9992
vn -0.9597 -0.2809 0.0000
vn -0.9883 0.1523 0.0000
vn -0.9939 0.1105 0.0000
vn -0.1225 0.0000 0.9925
vn -0.1225 0.0000 -0.9925
vn 0.0000 0.0000 1.0000
vn -0.3148 0.0000 0.9492
vn -0.0355 0.9994 0.0000
vn -0.3148 0.0000 -0.9492
vn -0.1073 0.0000 -0.9942
vn 0.0000 -1.0000 0.0000
vn 0.0000 0.0000 -1.0000
vn 0.0000 1.0000 0.0000
vn -0.0391 0.9992 0.0000
vn -0.4207 0.9072 0.0000
vn -0.2764 0.0000 0.9611
vn -0.2249 -0.9744 0.0000
vn -1.0000 0.0000 0.0000
vn -0.0645 0.0000 0.9979
vn -0.0391 -0.9992 0.0000
vn -0.0645 0.0000 -0.9979
vn -0.1354 -0.3180 0.9384
vn -0.5528 0.8333 0.0000
vn -0.0950 0.5072 0.8566
vn -0.0768 0.5284 -0.8455
vn -0.0859 -0.2721 -0.9584
vn -0.9447 -0.3280 0.0000
vn -0.1711 0.2407 0.9554
vn -1.0000 0.0065 0.0000
vn -0.1466 0.0005 0.9892
vn -0.0880 0.0003 -0.9961
vn -0.1725 0.9850 0.0030
vn -0.1126 0.2412 -0.9639
vn -0.9521 0.3059 0.0000
vn 0.8705 0.4881 -0.0628
vn -0.2121 0.9773 0.0022
vn -0.1524 0.9883 0.0002
vn -0.1552 0.9878 -0.0098
vn -0.1657 0.9861 0.0099
vn -0.9930 0.1114 0.0395
vn 0.0269 0.3192 0.9473
vn -0.1614 0.1732 -0.9716
vn 0.9628 -0.2701 0.0000
vn 0.9701 -0.2426 0.0000
vn 0.0000 -0.2778 0.9607
vn 0.0000 -0.2778 -0.9607
vn 0.9839 -0.1789 0.0000
vn -0.9628 -0.2701 0.0000
vn 0.0000 -0.3143 0.9493
vn 0.0000 -0.3143 -0.9493
vn -0.9839 -0.1789 0.0000
vn 0.0000 -0.2098 0.9777
vn 0.0000 -0.2098 -0.9777
vn -0.9912 0.0000 -0.1321
vn 0.9912 0.0000 -0.1321
vn -0.0432 -0.0002 0.9991
vn -0.0002 0.9998 0.0213
vn -0.9700 0.0091 0.2430
vn -0.0257 -0.9965 0.0790
vn 0.9830 0.1837 0.0000
vn 0.0608 0.1189 -0.9910
vn 0.1018 0.1989 0.9747
vn 0.9713 -0.2380 0.0000
vn 0.0355 -0.9994 0.0000
vn 0.0820 -0.1512 0.9851
vn 0.1447 0.0237 0.9892
vn 0.1123 0.0664 0.9915
vn 0.0202 -0.0373 -0.9991
vn 0.0006 0.0676 -0.9977
vn -0.0204 -0.0345 -0.9992
vn 0.9597 -0.2809 0.0000
vn 0.9883 0.1523 0.0000
vn 0.9939 0.1105 0.0000
vn 0.1225 0.0000 0.9925
vn 0.1225 0.0000 -0.9925
vn 0.3148 0.0000 0.9492
vn 0.0355 0.9994 0.0000
vn 0.3148 0.0000 -0.9492
vn 0.1073 0.0000 -0.9942
vn 0.0391 0.9992 0.0000
vn 0.4207 0.9072 0.0000
vn 0.2764 0.0000 0.9610
vn 0.2249 -0.9744 0.0000
vn 0.0645 0.0000 0.9979
vn 0.0391 -0.9992 0.0000
vn 0.0645 0.0000 -0.9979
vn 0.1354 -0.3180 0.9384
vn 0.5528 0.8333 0.0000
vn 0.0950 0.5072 0.8566
vn 0.0768 0.5284 -0.8455
vn 0.0859 -0.2721 -0.9584
vn 0.9447 -0.3280 0.0000
vn 0.1711 0.2407 0.9554
vn 1.0000 0.0065 0.0000
vn 0.1466 0.0005 0.9892
vn 0.0880 0.0003 -0.9961
vn 0.1725 0.9850 0.0030
vn 0.1126 0.2412 -0.9639
vn 0.9521 0.3059 0.0000
vn -0.8705 0.4881 -0.0628
vn 0.2121 0.9773 0.0022
vn 0.1524 0.9883 0.0002
vn 0.1552 0.9878 -0.0098
vn 0.1657 0.9861 0.0099
vn 0.9930 0.1114 0.0395
vn -0.0269 0.3192 0.9473
vn 0.1614 0.1732 -0.9716
vn -0.9701 -0.2426 0.0000
vn 0.0432 -0.0002 0.9991
vn 0.0002 0.9998 0.0213
vn 0.9700 0.0091 0.2430
vn 0.0257 -0.9965 0.0790
usemtl Material.001
s off
f 11/1/1 2/2/1 4/3/1 12/4/1
f 12/4/2 4/3/2 8/5/2 15/6/2
f 15/6/3 8/5/3 6/7/3 18/8/3
f 18/8/4 6/7/4 2/9/4 11/10/4
f 1/11/5 3/12/5 65/13/5 66/14/5
f 4/3/6 2/2/6 25/15/6 26/16/6
f 5/17/7 20/18/7 9/19/7 1/20/7
f 20/18/8 19/21/8 10/22/8 9/19/8
f 19/21/9 18/8/9 11/10/9 10/22/9
f 7/23/3 17/24/3 20/18/3 5/17/3
f 17/24/3 16/25/3 19/21/3 20/18/3
f 16/25/3 15/6/3 18/8/3 19/21/3
f 3/12/10 14/26/10 17/24/10 7/23/10
f 14/26/11 13/27/11 16/25/11 17/24/11
f 13/27/12 12/4/12 15/6/12 16/25/12
f 1/11/13 9/28/13 14/26/13 3/12/13
f 9/28/14 10/29/14 13/27/14 14/26/14
f 10/29/15 11/1/15 12/4/15 13/27/15
f 24/30/3 23/31/3 43/32/3 44/33/3
f 2/9/16 6/7/16 24/30/16 21/34/16
f 8/5/17 4/3/17 22/35/17 23/31/17
f 6/7/3 8/5/3 23/31/3 24/30/3
f 25/36/18 27/37/18 31/38/18 29/39/18
f 2/9/19 21/34/19 27/37/19 25/36/19
f 21/40/20 22/41/20 28/42/20 27/43/20
f 22/35/21 4/3/21 26/16/21 28/44/21
f 32/45/22 30/46/22 34/47/22 36/48/22
f 26/16/23 25/15/23 29/49/23 30/46/23
f 28/44/24 26/16/24 30/46/24 32/45/24
f 27/43/25 28/42/25 32/50/25 31/51/25
f 35/52/26 36/53/26 40/54/26 39/55/26
f 31/51/27 32/50/27 36/53/27 35/52/27
f 29/39/28 31/38/28 35/56/28 33/57/28
f 30/46/29 29/49/29 33/58/29 34/47/29
f 38/59/30 37/60/30 39/61/30 40/62/30
f 33/57/31 35/56/31 39/63/31 37/64/31
f 34/47/32 33/58/32 37/60/32 38/59/32
f 36/48/33 34/47/33 38/59/33 40/62/33
f 41/65/34 44/33/34 48/66/34 45/67/34
f 22/41/35 21/40/35 41/68/35 42/69/35
f 21/34/36 24/30/36 44/33/36 41/65/36
f 23/31/37 22/35/37 42/70/37 43/32/37
f 48/66/3 47/71/3 51/72/3 52/73/3 85/74/3 86/75/3
f 43/32/38 42/70/38 46/76/38 47/71/38
f 44/33/3 43/32/3 47/71/3 48/66/3
f 42/69/39 41/68/39 45/77/39 46/78/39
f 49/79/40 52/73/40 56/80/40 53/81/40
f 46/78/41 45/77/41 49/82/41 50/83/41
f 45/67/42 48/66/42 86/75/42 88/84/42 87/85/42 85/74/42 52/73/42 49/79/42
f 47/71/43 46/76/43 50/86/43 51/72/43
f 56/80/44 55/87/44 59/88/44 60/89/44
f 51/72/45 50/86/45 54/90/45 55/87/45
f 52/73/3 51/72/3 55/87/3 56/80/3
f 50/83/46 49/82/46 53/91/46 54/92/46
f 60/89/47 59/88/47 63/93/47 64/94/47
f 54/92/48 53/91/48 57/95/48 58/96/48
f 53/81/49 56/80/49 60/89/49 57/97/49
f 55/87/50 54/90/50 58/98/50 59/88/50
f 63/93/51 62/99/51 61/100/51 64/94/51
f 58/96/52 57/95/52 61/100/52 62/99/52
f 57/97/53 60/89/53 64/94/53 61/101/53
f 59/88/54 58/98/54 62/102/54 63/93/54
f 67/103/55 68/104/55 72/105/55 71/106/55
f 7/23/56 5/17/56 68/104/56 67/103/56
f 5/17/57 1/20/57 66/107/57 68/104/57
f 3/12/58 7/23/58 67/103/58 65/13/58
f 71/106/59 72/105/59 76/108/59 75/109/59
f 66/14/60 65/13/60 69/110/60 70/111/60
f 68/104/61 66/107/61 70/112/61 72/105/61
f 65/13/62 67/103/62 71/106/62 69/110/62
f 76/108/25 74/113/25 81/114/25 82/115/25
f 70/111/63 69/110/63 73/116/63 74/117/63
f 72/105/64 70/112/64 74/113/64 76/108/64
f 69/110/65 71/106/65 75/109/65 73/116/65
f 77/118/23 79/119/23 80/120/23 78/121/23
f 73/116/24 75/109/24 79/119/24 77/122/24
f 75/109/3 76/108/3 80/120/3 79/119/3
f 74/117/30 73/116/30 77/122/30 78/123/30
f 82/115/18 81/114/18 83/124/18 84/125/18
f 74/117/66 78/123/66 83/126/66 81/127/66
f 80/120/67 76/108/67 82/115/67 84/125/67
f 78/121/23 80/120/23 84/125/23 83/128/23
f 89/129/68 91/130/68 92/131/68 90/132/68
f 86/75/3 85/74/3 89/129/3 90/132/3
f 85/74/69 87/85/69 91/130/69 89/129/69
f 87/85/70 88/84/70 92/131/70 91/130/70
f 88/84/71 86/75/71 90/132/71 92/131/71
f 99/133/72 100/134/72 96/135/72 94/136/72
f 100/134/73 15/6/73 8/5/73 96/135/73
f 18/8/74 99/137/74 94/138/74 6/7/74
f 93/139/75 138/140/75 137/141/75 95/142/75
f 96/135/76 106/143/76 105/144/76 94/136/76
f 5/17/77 93/145/77 97/146/77 20/18/77
f 20/18/78 97/146/78 98/147/78 19/21/78
f 19/21/79 98/147/79 99/137/79 18/8/79
f 95/142/80 7/23/80 17/24/80 102/148/80
f 102/148/81 17/24/81 16/25/81 101/149/81
f 101/149/82 16/25/82 15/6/82 100/134/82
f 93/139/83 95/142/83 102/148/83 97/150/83
f 97/150/84 102/148/84 101/149/84 98/151/84
f 98/151/85 101/149/85 100/134/85 99/133/85
f 94/138/86 103/152/86 24/30/86 6/7/86
f 8/5/87 23/31/87 104/153/87 96/135/87
f 105/154/18 109/155/18 111/156/18 107/157/18
f 94/138/88 105/154/88 107/157/88 103/152/88
f 103/158/89 107/159/89 108/160/89 104/161/89
f 104/153/90 108/162/90 106/143/90 96/135/90
f 112/163/91 116/164/91 114/165/91 110/166/91
f 106/143/23 110/166/23 109/167/23 105/144/23
f 108/162/24 112/163/24 110/166/24 106/143/24
f 107/159/25 111/168/25 112/169/25 108/160/25
f 115/170/92 119/171/92 120/172/92 116/173/92
f 111/168/93 115/170/93 116/173/93 112/169/93
f 109/155/94 113/174/94 115/175/94 111/156/94
f 110/166/95 114/165/95 113/176/95 109/167/95
f 118/177/3 120/178/3 119/179/3 117/180/3
f 113/174/96 117/181/96 119/182/96 115/175/96
f 114/165/97 118/177/97 117/180/97 113/176/97
f 116/164/98 120/178/98 118/177/98 114/165/98
f 121/183/99 123/184/99 48/66/99 44/33/99
f 104/161/100 122/185/100 121/186/100 103/158/100
f 103/152/101 121/183/101 44/33/101 24/30/101
f 23/31/102 43/32/102 122/187/102 104/153/102
f 43/32/103 47/71/103 124/188/103 122/187/103
f 122/185/104 124/189/104 123/190/104 121/186/104
f 125/191/105 127/192/105 56/80/105 52/73/105
f 124/189/106 126/193/106 125/194/106 123/190/106
f 123/184/107 125/191/107 52/73/107 85/74/107 157/195/107 158/196/107 86/75/107 48/66/107
f 47/71/108 51/72/108 126/197/108 124/188/108
f 56/80/109 132/198/109 131/199/109 55/87/109
f 51/72/110 55/87/110 128/200/110 126/197/110
f 126/193/111 128/201/111 127/202/111 125/194/111
f 132/198/112 136/203/112 135/204/112 131/199/112
f 128/201/113 130/205/113 129/206/113 127/202/113
f 127/192/114 129/207/114 132/198/114 56/80/114
f 55/87/115 131/199/115 130/208/115 128/200/115
f 135/204/116 136/203/116 133/209/116 134/210/116
f 130/205/117 134/210/117 133/209/117 129/206/117
f 129/207/118 133/211/118 136/203/118 132/198/118
f 131/199/119 135/204/119 134/212/119 130/208/119
f 139/213/60 143/214/60 144/215/60 140/216/60
f 7/23/120 139/213/120 140/216/120 5/17/120
f 5/17/57 140/216/57 138/217/57 93/145/57
f 95/142/58 137/141/58 139/213/58 7/23/58
f 143/214/63 147/218/63 148/219/63 144/215/63
f 138/140/55 142/220/55 141/221/55 137/141/55
f 140/216/61 144/215/61 142/222/61 138/217/61
f 137/141/62 141/221/62 143/214/62 139/213/62
f 148/219/25 154/223/25 153/224/25 146/225/25
f 142/220/59 146/226/59 145/227/59 141/221/59
f 144/215/64 148/219/64 146/225/64 142/222/64
f 141/221/65 145/227/65 147/218/65 143/214/65
f 149/228/23 150/229/23 152/230/23 151/231/23
f 145/227/24 149/232/24 151/231/24 147/218/24
f 147/218/30 151/231/30 152/230/30 148/219/30
f 146/226/3 150/233/3 149/232/3 145/227/3
f 154/223/18 156/234/18 155/235/18 153/224/18
f 146/226/67 153/236/67 155/237/67 150/233/67
f 152/230/66 156/234/66 154/223/66 148/219/66
f 150/229/23 155/238/23 156/234/23 152/230/23
f 89/129/121 90/132/121 160/239/121 159/240/121
f 85/74/122 89/129/122 159/240/122 157/195/122
f 157/195/123 159/240/123 160/239/123 158/196/123
f 158/196/124 160/239/124 90/132/124 86/75/124
